<svg width="24" height="24" viewBox="0 0 24 24" fill="none" xmlns="http://www.w3.org/2000/svg">
<g id="android">
<path id="Vector" d="M17.523 14.8523C16.972 14.8523 16.5237 14.4038 16.5237 13.8527C16.5237 13.3016 16.972 12.8534 17.523 12.8534C18.0741 12.8534 18.5224 13.3016 18.5224 13.8527C18.5224 14.4038 18.0741 14.8523 17.523 14.8523ZM6.47696 14.8523C5.92588 14.8523 5.47764 14.4038 5.47764 13.8527C5.47764 13.3016 5.92588 12.8534 6.47696 12.8534C7.02802 12.8534 7.47628 13.3016 7.47628 13.8527C7.47628 14.4038 7.02802 14.8523 6.47696 14.8523ZM17.8815 8.83238L19.8788 5.37318C19.9933 5.17436 19.9252 4.92039 19.7267 4.80557C19.5282 4.69107 19.2739 4.75919 19.1591 4.95769L17.1367 8.46068C15.5902 7.75489 13.8533 7.36178 12 7.36178C10.1467 7.36178 8.40976 7.75489 6.86326 8.46068L4.84093 4.95769C4.72611 4.75919 4.47182 4.69107 4.27332 4.80557C4.07482 4.92039 4.00638 5.17436 4.1212 5.37318L6.11854 8.83238C2.68886 10.6977 0.343158 14.1699 0 18.272H24C23.6565 14.1699 21.3108 10.6977 17.8815 8.83238Z" fill="black"/>
</g>
</svg>
