<svg width="20" height="20" viewBox="0 0 20 20" fill="none" xmlns="http://www.w3.org/2000/svg">
<path d="M13.4647 4.73443C11.9647 4.73443 11.3308 5.45021 10.2861 5.45021C9.21506 5.45021 8.39809 4.73964 7.09824 4.73964C5.82591 4.73964 4.46913 5.51643 3.60752 6.83972C2.3977 8.7058 2.60306 12.2203 4.56251 15.2144C5.26341 16.2862 6.19942 17.4882 7.42711 17.5012H7.44943C8.5164 17.5012 8.83336 16.8026 10.3017 16.7944H10.3241C11.7705 16.7944 12.0607 17.4971 13.1232 17.4971H13.1455C14.3732 17.4841 15.3594 16.1523 16.0603 15.0845C16.5648 14.3167 16.7523 13.9313 17.1392 13.0626C14.3047 11.9867 13.8494 7.96845 16.6526 6.42789C15.7969 5.35646 14.5945 4.73592 13.461 4.73592L13.4647 4.73443Z" fill="black"/>
<path d="M13.1343 0.833374C12.2415 0.894014 11.1998 1.46247 10.5897 2.20466C10.0361 2.87728 9.58076 3.87505 9.75933 4.84269H9.83076C10.7817 4.84269 11.7549 4.27014 12.3233 3.53651C12.8709 2.83822 13.2861 1.84863 13.1343 0.833374Z" fill="black"/>
</svg>
