<svg width="18" height="18" viewBox="0 0 18 18" fill="none" xmlns="http://www.w3.org/2000/svg">
<path d="M8.99966 1.5C8.01474 1.5 7.03947 1.69399 6.12953 2.0709C5.21959 2.44781 4.39279 3.00026 3.69635 3.6967C2.28983 5.10322 1.49966 7.01088 1.49966 9C1.4931 10.7319 2.09275 12.4114 3.19466 13.7475L1.69466 15.2475C1.59059 15.353 1.52009 15.4869 1.49206 15.6324C1.46403 15.7779 1.47972 15.9284 1.53716 16.065C1.59945 16.1999 1.70043 16.3133 1.82729 16.3908C1.95415 16.4682 2.10116 16.5063 2.24966 16.5H8.99966C10.9888 16.5 12.8964 15.7098 14.303 14.3033C15.7095 12.8968 16.4997 10.9891 16.4997 9C16.4997 7.01088 15.7095 5.10322 14.303 3.6967C12.8964 2.29018 10.9888 1.5 8.99966 1.5ZM8.99966 15H4.05716L4.75466 14.3025C4.82552 14.233 4.8819 14.1502 4.92052 14.0588C4.95914 13.9674 4.97924 13.8692 4.97966 13.77C4.97684 13.5722 4.89597 13.3835 4.75466 13.245C3.77259 12.264 3.16104 10.9729 3.02417 9.59159C2.88731 8.21029 3.23361 6.82425 4.00408 5.66964C4.77454 4.51503 5.9215 3.66327 7.24954 3.25948C8.57759 2.85569 10.0045 2.92485 11.2873 3.45519C12.5701 3.98552 13.6293 4.94421 14.2845 6.16792C14.9397 7.39163 15.1503 8.80466 14.8805 10.1663C14.6107 11.5279 13.8771 12.7538 12.8048 13.6352C11.7325 14.5166 10.3877 14.9989 8.99966 15Z" fill="black"/>
</svg>
