<svg width="20" height="20" viewBox="0 0 20 20" fill="none" xmlns="http://www.w3.org/2000/svg">
<path d="M9.40866 12.7416C9.37282 12.7812 9.33943 12.823 9.30866 12.8666C9.27712 12.9131 9.2519 12.9635 9.23366 13.0166C9.20964 13.0639 9.19278 13.1144 9.18366 13.1666C9.17957 13.2221 9.17957 13.2778 9.18366 13.3333C9.18085 13.4426 9.20368 13.5511 9.25033 13.65C9.28776 13.7534 9.34747 13.8473 9.42523 13.9251C9.503 14.0028 9.59692 14.0625 9.70033 14.1C9.80008 14.144 9.90794 14.1668 10.017 14.1668C10.1261 14.1668 10.2339 14.144 10.3337 14.1C10.4371 14.0625 10.531 14.0028 10.6088 13.9251C10.6865 13.8473 10.7462 13.7534 10.7837 13.65C10.8207 13.5486 10.8376 13.4411 10.8337 13.3333C10.8343 13.2236 10.8133 13.1149 10.7718 13.0134C10.7303 12.9118 10.6692 12.8195 10.592 12.7416C10.5145 12.6635 10.4224 12.6015 10.3208 12.5592C10.2193 12.5169 10.1103 12.4951 10.0003 12.4951C9.89032 12.4951 9.7814 12.5169 9.67985 12.5592C9.5783 12.6015 9.48613 12.6635 9.40866 12.7416ZM10.0003 1.66663C8.35215 1.66663 6.74099 2.15537 5.37058 3.07105C4.00017 3.98672 2.93206 5.28821 2.30133 6.81093C1.6706 8.33365 1.50558 10.0092 1.82712 11.6257C2.14866 13.2422 2.94234 14.7271 4.10777 15.8925C5.27321 17.058 6.75807 17.8516 8.37458 18.1732C9.99109 18.4947 11.6666 18.3297 13.1894 17.699C14.7121 17.0682 16.0136 16.0001 16.9292 14.6297C17.8449 13.2593 18.3337 11.6481 18.3337 9.99996C18.3337 8.90561 18.1181 7.82198 17.6993 6.81093C17.2805 5.79988 16.6667 4.88122 15.8929 4.1074C15.1191 3.33358 14.2004 2.71975 13.1894 2.30096C12.1783 1.88217 11.0947 1.66663 10.0003 1.66663ZM10.0003 16.6666C8.68179 16.6666 7.39286 16.2756 6.29653 15.5431C5.2002 14.8105 4.34572 13.7694 3.84113 12.5512C3.33655 11.333 3.20453 9.99256 3.46176 8.69936C3.719 7.40615 4.35393 6.21826 5.28628 5.28591C6.21863 4.35356 7.40652 3.71863 8.69973 3.46139C9.99293 3.20416 11.3334 3.33618 12.5516 3.84076C13.7697 4.34535 14.8109 5.19983 15.5435 6.29616C16.276 7.39249 16.667 8.68142 16.667 9.99996C16.667 11.7681 15.9646 13.4638 14.7144 14.714C13.4641 15.9642 11.7684 16.6666 10.0003 16.6666ZM10.0003 5.83329C9.56122 5.83301 9.12977 5.94839 8.74942 6.16783C8.36907 6.38726 8.05322 6.70301 7.83366 7.08329C7.77337 7.17814 7.73288 7.28421 7.71464 7.39511C7.6964 7.50601 7.70078 7.61945 7.72752 7.72861C7.75426 7.83778 7.8028 7.94041 7.87023 8.03032C7.93766 8.12024 8.02258 8.19558 8.11989 8.25183C8.21719 8.30808 8.32487 8.34406 8.43644 8.35761C8.54801 8.37116 8.66117 8.362 8.76911 8.33069C8.87705 8.29938 8.97754 8.24655 9.06454 8.17539C9.15153 8.10423 9.22323 8.01621 9.27533 7.91663C9.34875 7.78946 9.45447 7.68394 9.58178 7.61077C9.7091 7.53761 9.85349 7.49938 10.0003 7.49996C10.2213 7.49996 10.4333 7.58776 10.5896 7.74404C10.7459 7.90032 10.8337 8.11228 10.8337 8.33329C10.8337 8.55431 10.7459 8.76627 10.5896 8.92255C10.4333 9.07883 10.2213 9.16663 10.0003 9.16663C9.77932 9.16663 9.56735 9.25442 9.41107 9.4107C9.25479 9.56698 9.167 9.77895 9.167 9.99996V10.8333C9.167 11.0543 9.25479 11.2663 9.41107 11.4225C9.56735 11.5788 9.77932 11.6666 10.0003 11.6666C10.2213 11.6666 10.4333 11.5788 10.5896 11.4225C10.7459 11.2663 10.8337 11.0543 10.8337 10.8333V10.6833C11.3848 10.4833 11.8481 10.096 12.1426 9.58902C12.4372 9.08205 12.5441 8.4877 12.4448 7.90987C12.3455 7.33203 12.0463 6.80747 11.5995 6.42789C11.1527 6.0483 10.5866 5.83784 10.0003 5.83329Z" fill="black"/>
</svg>
