<svg width="24" height="24" viewBox="0 0 24 24" fill="none" xmlns="http://www.w3.org/2000/svg">
<path d="M16.2498 8.06041C16.4348 8.18402 16.6524 8.25 16.8749 8.25C17.0227 8.25032 17.1691 8.22144 17.3058 8.16501C17.4424 8.10859 17.5665 8.02573 17.6711 7.92121C17.7756 7.81668 17.8584 7.69253 17.9149 7.5559C17.9713 7.41926 18.0002 7.27283 17.9999 7.125C17.9999 6.9025 17.9339 6.68499 17.8103 6.49998C17.6866 6.31498 17.5109 6.17078 17.3054 6.08564C17.0998 6.00049 16.8736 5.97821 16.6554 6.02162C16.4372 6.06503 16.2367 6.17217 16.0794 6.32951C15.922 6.48684 15.8149 6.6873 15.7715 6.90552C15.7281 7.12375 15.7503 7.34995 15.8355 7.55552C15.9206 7.76109 16.0648 7.93679 16.2498 8.06041Z" fill="white"/>
<path fill-rule="evenodd" clip-rule="evenodd" d="M9.49993 8.25825C10.24 7.76379 11.11 7.49987 12 7.49987C13.1935 7.49987 14.3381 7.97397 15.182 8.81789C16.0259 9.6618 16.5 10.8064 16.5 11.9999C16.5 12.8899 16.2361 13.7599 15.7416 14.4999C15.2471 15.24 14.5443 15.8167 13.7221 16.1573C12.8998 16.4979 11.995 16.587 11.1221 16.4134C10.2492 16.2398 9.44736 15.8112 8.81802 15.1819C8.18868 14.5525 7.7601 13.7507 7.58647 12.8778C7.41284 12.0049 7.50195 11.1001 7.84254 10.2778C8.18314 9.45553 8.75991 8.75272 9.49993 8.25825ZM13.6668 9.50535C13.1734 9.17569 12.5934 8.99973 12 8.99973C11.2046 9.00059 10.442 9.31694 9.87952 9.87939C9.31707 10.4418 9.00072 11.2044 8.99987 11.9999C8.99987 12.5932 9.17582 13.1733 9.50548 13.6667C9.83514 14.16 10.3037 14.5446 10.8519 14.7716C11.4001 14.9987 12.0033 15.0581 12.5853 14.9424C13.1673 14.8266 13.7018 14.5409 14.1214 14.1213C14.541 13.7017 14.8267 13.1671 14.9425 12.5852C15.0582 12.0032 14.9988 11.4 14.7718 10.8518C14.5447 10.3036 14.1601 9.83501 13.6668 9.50535Z" fill="white"/>
<path fill-rule="evenodd" clip-rule="evenodd" d="M3 11.2286C3 8.3483 3 6.90817 3.56054 5.80805C4.0536 4.84036 4.84036 4.0536 5.80805 3.56054C6.90817 3 8.3483 3 11.2286 3H12.7714C15.6517 3 17.0918 3 18.192 3.56054C19.1596 4.0536 19.9464 4.84036 20.4395 5.80805C21 6.90817 21 8.3483 21 11.2286V12.7714C21 15.6517 21 17.0918 20.4395 18.192C19.9464 19.1596 19.1596 19.9464 18.192 20.4395C17.0918 21 15.6517 21 12.7714 21H11.2286C8.3483 21 6.90817 21 5.80805 20.4395C4.84036 19.9464 4.0536 19.1596 3.56054 18.192C3 17.0918 3 15.6517 3 12.7714V11.2286ZM11.2286 4.5H12.7714C14.2363 4.5 15.2448 4.50117 16.0271 4.56509C16.7919 4.62757 17.2076 4.74248 17.511 4.89705C18.1964 5.2463 18.7537 5.80359 19.103 6.48903C19.2575 6.79239 19.3724 7.20808 19.4349 7.9729C19.4988 8.75523 19.5 9.76369 19.5 11.2286V12.7714C19.5 14.2363 19.4988 15.2448 19.4349 16.0271C19.3724 16.7919 19.2575 17.2076 19.103 17.511C18.7537 18.1964 18.1964 18.7537 17.511 19.103C17.2076 19.2575 16.7919 19.3724 16.0271 19.4349C15.2448 19.4988 14.2363 19.5 12.7714 19.5H11.2286C9.76369 19.5 8.75523 19.4988 7.9729 19.4349C7.20808 19.3724 6.79239 19.2575 6.48903 19.103C5.80359 18.7537 5.2463 18.1964 4.89705 17.511C4.74248 17.2076 4.62757 16.7919 4.56509 16.0271C4.50117 15.2448 4.5 14.2363 4.5 12.7714V11.2286C4.5 9.76369 4.50117 8.75523 4.56509 7.9729C4.62757 7.20808 4.74248 6.79239 4.89705 6.48903C5.2463 5.80359 5.80359 5.2463 6.48903 4.89705C6.79239 4.74248 7.20808 4.62757 7.9729 4.56509C8.75523 4.50117 9.76369 4.5 11.2286 4.5Z" fill="white"/>
</svg>
