<svg width="24" height="24" viewBox="0 0 24 24" fill="none" xmlns="http://www.w3.org/2000/svg">
<path fill-rule="evenodd" clip-rule="evenodd" d="M2 11H3V6C3 4.34314 4.34326 3 6 3H18C19.6567 3 21 4.34314 21 6V11H22C22.5522 11 23 11.4477 23 12C23 12.5523 22.5522 13 22 13H21V18C21 19.6569 19.6567 21 18 21H6C4.34326 21 3 19.6569 3 18V13H2C1.44775 13 1 12.5523 1 12C1 11.4477 1.44775 11 2 11ZM18 5H6C5.44775 5 5 5.44769 5 6V11H19V6C19 5.44769 18.5522 5 18 5ZM16.2929 13H13.7071L7.70711 19H10.2929L16.2929 13ZM11.7071 19L17.7071 13H19V14.2929L14.2929 19H11.7071ZM15.7071 19H18C18.5522 19 19 18.5523 19 18V15.7071L15.7071 19ZM6.29289 19L12.2929 13H9.70711L5 17.7071V18C5 18.5523 5.44775 19 6 19H6.29289ZM5 16.2929L8.29289 13H5V16.2929Z" fill="black"/>
</svg>
