<svg width="24" height="24" viewBox="0 0 24 24" fill="none" xmlns="http://www.w3.org/2000/svg">
<path d="M21.8715 7.31253C21.8715 5.55449 20.5784 4.14025 18.9805 4.14025C16.8162 4.03907 14.6089 4 12.3531 4H11.6499C9.39961 4 7.18839 4.03907 5.02406 4.14064C3.43011 4.14064 2.13697 5.5627 2.13697 7.32073C2.03931 8.71114 1.99789 10.1019 2.00024 11.4927C1.99633 12.8835 2.04061 14.2756 2.13307 15.6691C2.13307 17.4271 3.4262 18.8531 5.02015 18.8531C7.29387 18.9585 9.6262 19.0054 11.9976 19.0015C14.3729 19.0093 16.6987 18.9598 18.975 18.8531C20.5729 18.8531 21.866 17.4271 21.866 15.6691C21.9598 14.2743 22.0028 12.8835 21.9989 11.4888C22.0077 10.098 21.9653 8.70593 21.8715 7.31253ZM10.0872 15.3253V7.64851L15.752 11.4849L10.0872 15.3253Z" fill="white"/>
</svg>
